<svg width="606" height="461" viewBox="0 0 606 461" fill="none" xmlns="http://www.w3.org/2000/svg">
<path d="M239.616 253.782L239.044 254.058L307.012 394.767L170.472 460.721L77.7913 268.852C77.907 268.578 78.0267 268.298 78.1516 268.014L9.57935 126.054C16.2161 110.128 54.1243 109.974 88.6379 103.389C123.152 96.8039 133.144 54.8325 141.828 51.341L239.616 253.782Z" fill="url(#paint0_linear_57_87)"/>
<path d="M605.738 39.9668C603.176 65.5057 588.253 92.5664 574.671 98.7314C567.912 101.799 557.638 104.793 545.87 108.222C513.232 117.732 469.102 130.591 456.606 157.66C456.219 158.498 455.803 159.225 455.362 159.848L319.988 460.722H169.96L368.78 18.8389L368.805 18.8525C368.781 18.7909 368.767 18.7586 368.766 18.7568C368.766 18.7568 469.911 2.57346 536.671 0.868164L605.738 39.9668Z" fill="url(#paint1_linear_57_87)"/>
<path d="M94.7069 85.0515C94.7069 91.4443 89.5245 96.6267 83.1317 96.6267C76.7388 96.6267 71.5564 91.4443 71.5564 85.0515C71.5564 78.6586 76.7388 73.4762 83.1317 73.4762C89.5245 73.4762 94.7069 78.6586 94.7069 85.0515Z" fill="#75E224"/>
<path d="M23.1505 68.2146C23.1505 74.6075 17.9681 79.7899 11.5753 79.7899C5.18242 79.7899 0 74.6075 0 68.2146C0 61.8218 5.18242 56.6394 11.5753 56.6394C17.9681 56.6394 23.1505 61.8218 23.1505 68.2146Z" fill="#75E224"/>
<path d="M75.7652 34.5413C75.7652 42.0965 69.6405 48.2211 62.0854 48.2211C54.5302 48.2211 48.4055 42.0965 48.4055 34.5413C48.4055 26.9861 54.5302 20.8615 62.0854 20.8615C69.6405 20.8615 75.7652 26.9861 75.7652 34.5413Z" fill="#75E224"/>
<path d="M35.7788 32.4367C35.7788 41.1542 28.7119 48.2211 19.9944 48.2211C11.2769 48.2211 4.20996 41.1542 4.20996 32.4367C4.20996 23.7192 11.2769 16.6522 19.9944 16.6522C28.7119 16.6522 35.7788 23.7192 35.7788 32.4367Z" fill="#75E224"/>
<circle cx="108.387" cy="30.3319" r="19.9936" fill="#75E224"/>
<circle cx="30.5173" cy="93.4698" r="5.26148" fill="#75E224"/>
<circle cx="48.4055" cy="67.1623" r="10.523" fill="#75E224"/>
<circle cx="78.9229" cy="55.5872" r="5.26148" fill="#75E224"/>
<circle cx="76.8179" cy="7.18132" r="5.26148" fill="#75E224"/>
<defs>
<linearGradient id="paint0_linear_57_87" x1="158.296" y1="51.341" x2="158.296" y2="460.721" gradientUnits="userSpaceOnUse">
<stop stop-color="#25CD3E"/>
<stop offset="1" stop-color="#56A210"/>
</linearGradient>
<linearGradient id="paint1_linear_57_87" x1="501.651" y1="-59.9791" x2="201.444" y2="509.572" gradientUnits="userSpaceOnUse">
<stop stop-color="#1EBD46"/>
<stop offset="1" stop-color="#95F016"/>
</linearGradient>
</defs>
</svg>
